<mxfile host="app.diagrams.net" modified="2025-01-14T11:37:28.571Z" agent="Mozilla/5.0 (Macintosh; Intel Mac OS X 10_15_7) AppleWebKit/537.36 (KHTML, like Gecko) Chrome/131.0.0.0 Safari/537.36" version="24.4.10" etag="dx81FSKeSRxYxPDXPNyR" type="github">
  <diagram name="第 1 页" id="nEIHZfjDpFFyq_n9eS7W">
    <mxGraphModel>
      <root>
        <mxCell id="0" />
        <mxCell id="1" parent="0" />
      </root>
    </mxGraphModel>
  </diagram>
</mxfile>
